<svg width="142" height="41" viewBox="0 0 142 41" fill="none" xmlns="http://www.w3.org/2000/svg">
  <path
    d="M57.005 17.241C60.3691 15.9795 64.8546 17.4513 66.8871 18.5026C65.6956 18.5026 62.1613 17.8448 60.1589 18.9231C57.4255 20.3949 57.005 23.1282 57.8461 25.0205C58.4067 26.2821 60.7896 27.5436 63.9435 27.1231C67.4926 26.6499 73.3855 21.9906 79.5025 20.3949C84.3384 19.1333 87.7024 20.8154 89.1742 22.2872C90.6385 23.7515 92.1017 27.1527 90.8563 29.4359C89.5948 31.7487 87.9127 32.3445 85.5999 31.959C83.2871 31.5735 82.2358 27.9641 82.8665 28.5949C83.4973 29.2256 86.2307 29.6462 87.2819 28.1744C88.3332 26.7026 87.2819 24.3897 85.3896 23.5487C83.149 22.5529 80.3435 23.5487 76.9794 25.0205C76.1852 25.368 67.9384 30.4872 62.682 30.9077C57.4255 31.3282 54.6922 28.5949 53.4307 26.2821C52.1691 23.9692 53.0431 18.7268 57.005 17.241Z"
    fill="#FE94D4" />
  <path
    d="M56.9313 17.0443C58.6642 16.3945 60.67 16.4527 62.4846 16.7979C64.3018 17.1436 65.9507 17.7813 66.9838 18.3157L66.8873 18.7128C66.578 18.7128 66.1209 18.6704 65.597 18.6261C65.0674 18.5814 64.4567 18.5332 63.8222 18.5186C62.5438 18.489 61.2079 18.597 60.2585 19.1083C57.6318 20.5227 57.2372 23.1329 58.038 24.9351C58.2875 25.4963 58.9673 26.0975 59.9998 26.5071C61.0247 26.9136 62.3726 27.1206 63.9158 26.9148C64.7709 26.8008 65.7814 26.4316 66.9238 25.9055C68.0642 25.3803 69.3186 24.7072 70.6616 23.9943C73.3403 22.5723 76.3635 20.9966 79.4493 20.1916C84.3582 18.911 87.7991 20.6145 89.3231 22.1385C90.0827 22.8981 90.8308 24.1462 91.2327 25.4944C91.634 26.8406 91.7011 28.326 91.0409 29.5365C90.3947 30.7211 89.6285 31.4874 88.7084 31.901C87.7902 32.3137 86.7456 32.3631 85.5652 32.1663C84.3111 31.9572 83.4271 30.8854 82.9444 29.996C82.7012 29.5478 82.5468 29.1221 82.4956 28.8375C82.4826 28.7657 82.4749 28.6959 82.4762 28.6334C82.4774 28.5796 82.4854 28.4949 82.5354 28.4228C82.5642 28.3812 82.6088 28.3414 82.6709 28.3222C82.7312 28.3035 82.7875 28.3104 82.8298 28.3234C82.9065 28.347 82.9694 28.4001 83.0154 28.4462C83.136 28.5667 83.3846 28.6987 83.7333 28.8002C84.0752 28.8996 84.4892 28.9628 84.9164 28.9628C85.7809 28.9628 86.6429 28.7072 87.1109 28.052C87.5826 27.3915 87.5939 26.5271 87.246 25.7071C86.8983 24.8874 86.2003 24.1391 85.3044 23.7409C84.2405 23.268 83.029 23.2615 81.6508 23.5647C80.271 23.8683 78.7453 24.4774 77.0638 25.2131C76.9763 25.2514 76.7719 25.3628 76.4552 25.5396C76.1446 25.713 75.7353 25.944 75.2516 26.2118C74.283 26.748 73.0098 27.4354 71.5963 28.1255C68.778 29.5014 65.3703 30.9034 62.6986 31.1171C57.342 31.5456 54.5382 28.7515 53.2461 26.3826C52.5802 25.1617 52.4912 23.2105 53.0584 21.389C53.6281 19.5599 54.8737 17.8159 56.9313 17.0443ZM62.4062 17.211C60.629 16.8729 58.71 16.826 57.0788 17.4377C55.1745 18.1518 54.002 19.7722 53.4596 21.5139C52.9148 23.2632 53.0197 25.0896 53.6153 26.1814C54.8462 28.4381 57.5092 31.1107 62.6653 30.6982C65.25 30.4914 68.5942 29.1233 71.4119 27.7477C72.8163 27.062 74.0825 26.3783 75.0479 25.8439C75.531 25.5764 75.9374 25.3471 76.2503 25.1724C76.557 25.0012 76.7839 24.8765 76.895 24.8279C78.5774 24.0918 80.1365 23.4674 81.5605 23.154C82.9862 22.8404 84.2982 22.8336 85.4749 23.3565C86.4712 23.7993 87.2452 24.628 87.6333 25.5428C88.0213 26.4574 88.0325 27.4854 87.453 28.2967C86.8697 29.1132 85.839 29.3833 84.9164 29.3833C84.4501 29.3833 83.9966 29.315 83.6158 29.2043C83.3627 29.1306 83.1304 29.0339 82.946 28.9193C83.0089 29.1466 83.1309 29.4582 83.314 29.7956C83.7774 30.6496 84.576 31.5751 85.6346 31.7516C86.7669 31.9403 87.7199 31.8845 88.5363 31.5175C89.3507 31.1514 90.0564 30.4633 90.6717 29.3353C91.2568 28.2626 91.2147 26.9059 90.8298 25.6147C90.4455 24.3255 89.7301 23.1405 89.0254 22.4358C87.6058 21.0162 84.3184 19.3557 79.5557 20.5981C76.5246 21.3888 73.543 22.9406 70.8588 24.3655C69.5204 25.0759 68.2534 25.756 67.0996 26.2874C65.9478 26.8178 64.8907 27.2091 63.9712 27.3317C62.3606 27.5464 60.9401 27.3324 59.8449 26.898C58.7574 26.4666 57.9653 25.8062 57.6541 25.1059C56.773 23.1235 57.2195 20.267 60.0593 18.7378C61.1123 18.1709 62.5448 18.0687 63.832 18.0985C64.4802 18.1134 65.1017 18.1624 65.6323 18.2073C65.6779 18.2111 65.723 18.2146 65.767 18.2184C64.8343 17.8323 63.6615 17.4498 62.4062 17.211Z"
    fill="#FE94D4" />
  <path
    d="M56.3258 10.735C59.1298 10.6545 60.7284 12.3376 62.0674 13.5814C60.9971 13.6437 60.3337 13.5997 58.9097 13.9717C57.6937 14.2893 56.9528 14.7994 55.9645 15.1756C54.3832 15.7775 53.373 16.0698 52.8599 15.7692C51.9528 15.2379 51.7486 14.0872 52.1691 13.1246C52.5507 12.2511 54.2136 10.7956 56.3258 10.735Z"
    fill="#FF0095" />
  <path
    d="M61.6681 9.55685C61.1732 10.99 61.3797 11.2258 61.4389 12.0071C61.4389 12.0071 59.0675 9.58421 59.403 7.54078C59.7385 5.49735 61.0031 4.51509 61.41 4.40882C61.8168 4.30254 62.6837 4.29342 63.0556 5.71744C63.4276 7.14145 62.163 8.12371 61.6681 9.55685Z"
    fill="#FF0095" />
  <path
    d="M56.3197 10.5248C59.2232 10.4415 60.8837 12.1948 62.2106 13.4274L62.5715 13.7629L62.0796 13.7912C60.9982 13.8541 60.3612 13.8099 58.9627 14.1752C58.3721 14.3294 57.8958 14.5305 57.4404 14.7423C56.9886 14.9524 56.5427 15.1806 56.0392 15.3722C55.2486 15.6732 54.5876 15.9021 54.0561 16.0166C53.535 16.1288 53.0836 16.1442 52.7535 15.9509C51.729 15.3507 51.5264 14.0709 51.9766 13.0405C52.189 12.5542 52.7347 11.9437 53.4825 11.4496C54.2358 10.9519 55.2171 10.5565 56.3197 10.5248ZM56.332 10.9454C55.3225 10.9743 54.416 11.3369 53.7145 11.8003C53.0074 12.2675 52.5309 12.8218 52.3618 13.2089C51.9709 14.1036 52.1767 15.1253 52.9663 15.5878C53.1493 15.6951 53.4599 15.7148 53.9674 15.6055C54.4646 15.4984 55.0992 15.2801 55.8897 14.9792C56.3744 14.7947 56.7933 14.5796 57.263 14.3612C57.729 14.1445 58.2314 13.9316 58.8567 13.7682C60.0688 13.4516 60.7497 13.4291 61.5597 13.3945C60.2913 12.2076 58.7965 10.8747 56.332 10.9454ZM61.3568 4.20524C61.5896 4.14444 61.9661 4.10798 62.3424 4.30256C62.7243 4.5001 63.0628 4.91321 63.259 5.6643C63.4656 6.45539 63.2111 7.1175 62.8713 7.73525C62.7062 8.03533 62.5017 8.35662 62.328 8.65758C62.1484 8.96878 61.9842 9.28569 61.8668 9.6255C61.6232 10.3312 61.5585 10.7243 61.556 11.0283C61.5547 11.1815 61.5692 11.3177 61.5888 11.4694C61.6082 11.6195 61.6334 11.7888 61.6488 11.9913L61.6923 12.5666L61.2886 12.1543L61.2878 12.1535C61.2874 12.1531 61.2872 12.1525 61.2866 12.1519C61.2853 12.1505 61.2832 12.1486 61.2808 12.1461C61.276 12.1411 61.2689 12.1335 61.2599 12.1239C61.2418 12.1048 61.2153 12.0771 61.1823 12.041C61.1163 11.9688 61.0231 11.8638 60.9125 11.7318C60.6914 11.4679 60.3998 11.0938 60.1183 10.6538C59.5629 9.78562 59.0144 8.61065 59.1955 7.50692C59.3694 6.44794 59.7852 5.65849 60.2152 5.11772C60.4299 4.84774 60.6487 4.63882 60.8439 4.489C61.0344 4.34274 61.2158 4.24207 61.3568 4.20524ZM62.1494 4.67585C61.8976 4.54566 61.6372 4.56675 61.4632 4.6122C61.4008 4.6285 61.2716 4.69086 61.1001 4.82246C60.9333 4.95055 60.7384 5.13503 60.5441 5.37931C60.1563 5.86705 59.7723 6.5905 59.6107 7.57468C59.4564 8.51432 59.9258 9.57299 60.4722 10.4271C60.7084 10.7963 60.9537 11.1175 61.1539 11.3626C61.143 11.2561 61.1344 11.1456 61.1355 11.0246C61.1386 10.6571 61.2181 10.2157 61.4693 9.48834C61.5994 9.11159 61.7787 8.76788 61.9638 8.44733C62.1547 8.11661 62.3365 7.83495 62.5029 7.53238C62.8261 6.94479 63.0177 6.40351 62.8524 5.77066C62.6766 5.09778 62.3956 4.80319 62.1494 4.67585Z"
    fill="#FF0095" />
  <path
    d="M62.8922 32.1692H59.9486L64.364 40.7897H79.9229C81.3246 38.0564 83.9178 32.8 83.7075 32.5897C83.4697 32.3518 82.3058 31.0478 81.8152 30.2769L79.0819 39.1077H78.0306C78.8016 35.7436 80.5537 28.8218 80.5537 27.9641C80.5537 26.9128 80.1332 26.7025 79.5024 26.7025H79.5024C78.8959 26.7025 78.2409 26.7025 78.0306 27.3333L75.7178 39.3179H74.8768C75.2272 36.5846 75.9281 30.0666 75.9281 29.2256C75.9281 27.8695 75.9281 27.3333 75.5075 27.3333L73.1947 28.3846L72.564 39.1077H71.7229L71.3024 29.4359L68.5691 30.4872L69.4101 39.1077H68.5691L67.0973 31.1179L64.1537 31.7487L66.2563 39.1077H65.4152L62.8922 32.1692Z"
    fill="#DCAD81" />
  <path
    d="M80.3435 27.9641C80.3435 27.4577 80.2407 27.2124 80.116 27.0877C80.0085 26.9802 79.8494 26.9269 79.6101 26.9153L79.5025 26.9128C79.1913 26.9128 78.9088 26.9146 78.6779 26.983C78.4664 27.0457 78.3136 27.1595 78.2336 27.3904L75.8916 39.5282H74.6379L74.6683 39.2912C74.8432 37.9268 75.106 35.6156 75.3249 33.54C75.5447 31.456 75.7179 29.6318 75.7179 29.2256C75.7179 28.5376 75.7173 28.0878 75.6686 27.8068C75.6443 27.6666 75.6127 27.6011 75.589 27.5723C75.5798 27.5613 75.5694 27.5516 75.545 27.5468L73.3969 28.5234L72.7624 39.3179H71.5218L71.5128 39.1167L71.1046 29.7369L68.7938 30.626L69.6196 39.0871L69.6418 39.3179H68.3942L68.3622 39.1459L66.9294 31.3688L64.4174 31.9072L66.5352 39.3179H65.2679L65.2178 39.1795L62.7452 32.3795H60.2928L64.4926 40.5795H79.7937C80.4901 39.2187 81.4556 37.2869 82.2297 35.6536C82.6279 34.8134 82.9744 34.0547 83.2079 33.4944C83.3249 33.2135 83.4118 32.9872 83.4625 32.8271C83.4829 32.7625 83.4948 32.7132 83.5019 32.6784C83.2193 32.3815 82.413 31.4724 81.888 30.7524L79.2368 39.3179H77.7667L77.8258 39.0608C78.2114 37.3783 78.8432 34.8024 79.3769 32.5474C79.644 31.4187 79.8864 30.3698 80.0622 29.55C80.1502 29.14 80.2212 28.7887 80.27 28.5144C80.3199 28.2337 80.3435 28.0498 80.3435 27.9641ZM80.7641 27.9641C80.7641 28.0928 80.7329 28.3128 80.684 28.5879C80.6339 28.8693 80.5621 29.226 80.4737 29.6379C80.2969 30.4623 80.0531 31.515 79.7859 32.6443C79.2773 34.7932 78.6845 37.2186 78.296 38.8974H78.9272L81.7488 29.7808L81.9927 30.164C82.4717 30.9166 83.6236 32.2083 83.8563 32.4411C83.9174 32.5021 83.9267 32.5773 83.929 32.6082C83.9319 32.647 83.9278 32.6855 83.9228 32.7183C83.9126 32.7849 83.8911 32.8656 83.8633 32.9536C83.8069 33.1318 83.7147 33.3721 83.5964 33.6562C83.359 34.226 83.0089 34.9917 82.61 35.8335C81.8115 37.5181 80.8118 39.5178 80.1103 40.8858L80.0516 41H64.2355L59.6049 31.9589H63.0397L63.0898 32.0973L65.5624 38.8974H65.9775L63.8897 31.5902L67.2649 30.867L67.3044 31.0797L68.7445 38.8974H69.1782L68.3597 30.5077L68.3446 30.3483L71.227 29.2396L71.5 29.1349L71.9247 38.8974H72.3657L72.9924 28.2458L75.4621 27.123H75.5076C75.6646 27.123 75.8071 27.1768 75.9126 27.3041C76.007 27.4183 76.0543 27.5718 76.0826 27.7349C76.139 28.061 76.1384 28.5576 76.1384 29.2256C76.1384 29.6604 75.9611 31.5158 75.743 33.5843C75.536 35.5458 75.2892 37.719 75.1146 39.1077H75.5442L77.8242 27.2935L77.827 27.2799L77.8311 27.2668C77.9623 26.8733 78.2411 26.6739 78.5584 26.5797C78.7839 26.5129 79.0361 26.4972 79.2725 26.4935L79.5025 26.4923L79.6265 26.4952C79.9154 26.5087 80.199 26.576 80.4134 26.7904C80.6567 27.0337 80.7641 27.4191 80.7641 27.9641Z"
    fill="#DCAD81" />
  <path
    d="M60.3691 23.1282C60.1589 22.2872 60.3691 20.8154 60.3691 20.8154C61.2802 21.3761 61.8409 22.7077 63.7332 22.4974C67.0973 22.1236 69.8307 19.5538 71.9332 17.8718C76.3486 13.8769 77.5454 12.8244 81.1845 11.9846C83.9178 11.3538 87.0708 12.4877 88.5435 15.1385C89.5948 17.0308 88.964 18.5726 88.7537 20.1846L85.8102 19.1333C85.3896 18.082 84.9691 17.0308 83.7076 16.6102C82.5925 16.2386 80.5537 16.4 79.5025 16.8205C77.5405 17.6053 74.3488 20.2071 69.8307 22.9179C65.6255 25.441 63.1025 25.1256 62.4717 25.0205C61.2102 24.8102 60.5794 23.9692 60.3691 23.1282Z"
    fill="#FE94D4" />
  <path
    d="M81.1371 11.7796C83.9509 11.1303 87.2039 12.2945 88.7273 15.0365C89.8224 17.0078 89.1651 18.6567 88.9622 20.212L88.9285 20.4703L85.7394 19.3312L85.6503 19.2996L85.6149 19.2113C85.1897 18.1481 84.7983 17.1955 83.6413 16.8097C83.1205 16.6361 82.3627 16.5825 81.5938 16.6282C80.8265 16.6739 80.0782 16.8169 79.5807 17.0159C78.6254 17.398 77.3578 18.2294 75.7432 19.3213C74.1369 20.4076 72.2039 21.7391 69.9389 23.0981C65.6887 25.6482 63.1145 25.3407 62.437 25.2278C61.0802 25.0016 60.3925 24.0878 60.1653 23.179C60.0519 22.7255 60.0539 22.12 60.0803 21.6448C60.0937 21.4037 60.1141 21.1896 60.1308 21.0358C60.1391 20.9589 60.1467 20.8969 60.1521 20.8539C60.1549 20.8324 60.1572 20.8153 60.1587 20.8038C60.1595 20.7981 60.1599 20.7937 60.1604 20.7907C60.1606 20.7891 60.1607 20.7878 60.1608 20.787L60.1612 20.7861L60.2064 20.4683L60.4794 20.6362C60.7282 20.7893 60.9483 20.9922 61.1583 21.1923C61.3726 21.3966 61.5772 21.599 61.8112 21.7787C62.2664 22.1282 62.8268 22.3865 63.7101 22.2883C65.3461 22.1065 66.8383 21.3896 68.1908 20.4995C69.5453 19.608 70.7382 18.5581 71.7988 17.7095C73.998 15.7197 75.4129 14.4473 76.7337 13.5701C78.0659 12.6852 79.3 12.2036 81.1371 11.7796ZM88.3598 15.2406C86.9379 12.6812 83.8848 11.5773 81.232 12.1894C79.4301 12.6053 78.2462 13.0704 76.9665 13.9204C75.6766 14.7771 74.2865 16.0262 72.0743 18.0278L72.0698 18.0319L72.0645 18.036C71.0232 18.869 69.7994 19.9445 68.422 20.851C67.0411 21.7598 65.4845 22.5144 63.7565 22.7064C62.7475 22.8185 62.0814 22.516 61.5554 22.1121C61.2989 21.9152 61.074 21.693 60.8679 21.4966C60.7542 21.3881 60.6454 21.2881 60.5373 21.1984C60.5244 21.3309 60.5102 21.4922 60.5004 21.6682C60.4742 22.1391 60.4762 22.6898 60.5731 23.0772C60.7664 23.8503 61.3403 24.6187 62.5064 24.813C63.0907 24.9104 65.5627 25.2335 69.7225 22.7376C71.9756 21.3857 73.8978 20.0612 75.5074 18.9727C77.1086 17.8899 78.4177 17.028 79.4243 16.6254C79.9781 16.4038 80.7751 16.2558 81.5687 16.2085C82.3607 16.1614 83.1798 16.213 83.774 16.411C85.1011 16.8534 85.5628 17.9516 85.9693 18.9669L88.5823 19.8999C88.8216 18.3392 89.315 16.96 88.3598 15.2406Z"
    fill="#FE94D4" />
  <path
    d="M76.9793 11.9846C76.6641 12.3787 71.9331 16.1197 69.6203 18.0821C68.7793 18.0821 67.0038 16.8205 66.2562 15.9795C64.5742 14.0872 64.4068 12.607 64.5742 10.9333C64.7844 8.83077 66.2562 6.50394 68.569 5.88719C71.0921 5.21438 72.9844 5.25641 75.5075 7.14873C76.5588 7.93719 77.8203 10.9333 76.9793 11.9846Z"
    fill="#EE5454" />
  <path
    d="M68.5147 5.68393C69.7886 5.34423 70.9244 5.17907 72.0689 5.34801C73.2158 5.51731 74.352 6.01895 75.6339 6.98037C75.9265 7.19987 76.2188 7.5598 76.4782 7.97827C76.7395 8.39994 76.9759 8.89523 77.1516 9.39873C77.327 9.90123 77.4447 10.4204 77.4621 10.8886C77.4793 11.3519 77.3991 11.7964 77.1434 12.1161C77.0898 12.183 76.9649 12.2978 76.8059 12.4372C76.6399 12.5827 76.4186 12.7704 76.1562 12.9891C75.6311 13.4268 74.9372 13.9936 74.1818 14.6083C72.6694 15.8391 70.9108 17.2628 69.7565 18.2422L69.6974 18.2923H69.6202C69.3656 18.2923 69.0646 18.1991 68.7599 18.064C68.4501 17.9267 68.1158 17.7363 67.7883 17.5219C67.135 17.0944 66.4886 16.5572 66.0992 16.1191C65.2419 15.1546 64.761 14.2842 64.5194 13.4318C64.2781 12.5802 64.2801 11.7621 64.365 10.9124C64.5816 8.74658 66.0964 6.32888 68.5147 5.68393ZM72.0078 5.76401C70.9446 5.60706 69.8723 5.75737 68.6231 6.09048C66.4159 6.67915 64.9874 8.91509 64.7835 10.9543C64.7011 11.7783 64.7029 12.5373 64.9239 13.3172C65.1447 14.0963 65.5887 14.9122 66.4134 15.8399C66.7715 16.2428 67.3867 16.7566 68.0182 17.17C68.3331 17.3761 68.6472 17.5541 68.9303 17.6796C69.1786 17.7897 69.3885 17.852 69.5479 17.8673C70.7067 16.8865 72.4336 15.4887 73.9161 14.2823C74.6718 13.6673 75.3643 13.1018 75.8872 12.6659C76.1487 12.448 76.3666 12.2631 76.5287 12.121C76.6977 11.9728 76.7901 11.8848 76.8153 11.8532C76.98 11.6473 77.0576 11.3228 77.042 10.9042C77.0266 10.4903 76.9208 10.014 76.7545 9.53754C76.5886 9.0621 76.3651 8.59471 76.1205 8.20003C75.8739 7.80215 75.6143 7.49145 75.3813 7.3167C74.1402 6.38593 73.0685 5.92063 72.0078 5.76401Z"
    fill="#EE5454" />
  <path
    d="M72.1435 3.36409C71.3024 4.62563 70.8819 7.14871 70.2512 9.04101C70.2512 9.04101 72.1435 4.83588 72.564 4.20512C72.9845 3.57435 73.7264 2.73332 74.246 2.31281C74.6665 1.9725 76.232 1.19062 76.1383 0.841012C76.0447 0.491408 75.9281 0.210243 75.5076 0.210243C75.0871 0.210243 73.7298 0.984595 72.1435 3.36409Z"
    fill="#271C0E" />
  <path
    d="M75.5076 0C75.7733 0 75.9701 0.0930424 76.108 0.261178C76.2331 0.413801 76.295 0.612239 76.3417 0.786408C76.3756 0.913198 76.3265 1.02711 76.2796 1.1022C76.2303 1.18119 76.1591 1.25661 76.0829 1.32601C75.9295 1.4659 75.7174 1.61459 75.4998 1.75638C75.281 1.89896 75.045 2.04202 74.8432 2.16704C74.6357 2.29553 74.4711 2.40117 74.3783 2.47626C73.8781 2.88108 73.1499 3.70528 72.739 4.32175C72.6433 4.46531 72.4527 4.83214 72.2141 5.31924C71.9785 5.80032 71.7031 6.38375 71.4405 6.94832C71.178 7.51265 70.9286 8.05743 70.7448 8.46118C70.6529 8.663 70.5776 8.82968 70.5251 8.94575C70.4989 9.00373 70.4783 9.04915 70.4643 9.08004C70.4574 9.09548 70.4519 9.10741 70.4483 9.11535C70.4465 9.1193 70.4451 9.12239 70.4442 9.12439C70.4438 9.12525 70.4436 9.12596 70.4434 9.12644L70.443 9.12726L70.0516 8.9745C70.3651 8.03392 70.6233 6.94675 70.9161 5.90894C71.2045 4.88623 71.5273 3.90943 71.9686 3.24748C72.7708 2.04408 73.5198 1.23965 74.1282 0.733433C74.4322 0.480503 74.7034 0.30006 74.9306 0.181921C75.151 0.0673632 75.3513 0 75.5076 0ZM75.5076 0.420513C75.4537 0.420513 75.3264 0.449805 75.1245 0.554798C74.9294 0.656211 74.6833 0.81856 74.3972 1.05662C73.8253 1.53247 73.1024 2.30476 72.3184 3.48073C71.9187 4.08031 71.6107 4.99583 71.321 6.02311C71.2787 6.17289 71.2378 6.32531 71.1961 6.47894C71.4166 6.00753 71.6396 5.53605 71.8363 5.13445C72.0708 4.65574 72.2745 4.26032 72.3891 4.0885C72.8191 3.44345 73.5748 2.58559 74.1138 2.14938C74.2313 2.05435 74.4201 1.93446 74.6214 1.80977C74.8284 1.68158 75.0569 1.54352 75.2702 1.40445C75.4849 1.26456 75.6727 1.13079 75.7996 1.01514C75.8636 0.95678 75.9028 0.911208 75.9228 0.879217C75.9249 0.875775 75.9259 0.872339 75.9273 0.869772C75.8829 0.708688 75.8414 0.599239 75.7828 0.527694C75.7338 0.468015 75.6622 0.420513 75.5076 0.420513Z"
    fill="#271C0E" />
  <path
    d="M131.91 35.9539V12.8257H141.161V17.2936H136.614V21.801H140.977V26.1507H136.614V31.4465H141.463V35.9539H131.91Z"
    fill="#FE94D4" />
  <path
    d="M119.189 35.9539V12.8257H123.762V22.0901L125.917 12.8257H130.569L127.98 23.4174L131.108 35.9539H126.312L123.789 24.7577V35.9539H119.189Z"
    fill="#FE94D4" />
  <path
    d="M105.496 35.9539L107.73 12.8257H115.575L117.77 35.9539H113.394L113.065 32.2218H110.28L109.99 35.9539H105.496ZM110.608 28.5292H112.711L111.699 16.768H111.488L110.608 28.5292Z"
    fill="#FE94D4" />
  <path
    d="M98.7416 36.1641C97.0684 36.1641 95.7192 35.6428 94.6942 34.6003C93.678 33.5578 93.1699 32.0991 93.1699 30.2244V19.5538C93.1699 17.3111 93.6123 15.594 94.4971 14.4026C95.3907 13.2111 96.8406 12.6154 98.8468 12.6154C99.9419 12.6154 100.914 12.8169 101.764 13.2199C102.623 13.6229 103.297 14.2273 103.788 15.0333C104.278 15.8306 104.524 16.838 104.524 18.0558V22.0506H99.9243V18.634C99.9243 17.9419 99.8367 17.4776 99.6615 17.241C99.4863 16.9957 99.2147 16.8731 98.8468 16.8731C98.4175 16.8731 98.1284 17.0308 97.9795 17.3461C97.8305 17.6528 97.7561 18.0645 97.7561 18.5814V30.1586C97.7561 30.7982 97.8481 31.2494 98.032 31.5122C98.2248 31.775 98.4963 31.9064 98.8468 31.9064C99.241 31.9064 99.517 31.7443 99.6747 31.4202C99.8411 31.096 99.9243 30.6755 99.9243 30.1586V25.9929H104.576V30.3689C104.576 32.4014 104.064 33.8776 103.039 34.7974C102.014 35.7085 100.581 36.1641 98.7416 36.1641Z"
    fill="#FE94D4" />
  <path
    d="M42.9055 37.2154V29.6068L39.2129 14.0872H43.7991L45.0869 21.9193L46.3747 14.0872H50.9478L47.2683 29.6068V37.2154H42.9055Z"
    fill="#FE94D4" />
  <path d="M31.4466 37.2154V18.5289H28.7001V14.0872H38.8187V18.5289H36.0722V37.2154H31.4466Z" fill="#FE94D4" />
  <path d="M20.8023 37.2154V18.5289H18.0559V14.0872H28.1744V18.5289H25.428V37.2154H20.8023Z" fill="#FE94D4" />
  <path d="M12.5104 37.2154V14.0872H16.9783V37.2154H12.5104Z" fill="#FE94D4" />
  <path
    d="M1.90735e-05 37.2154V14.0872H4.5731V23.3516L6.72822 14.0872H11.3801L8.79137 24.6789L11.9189 37.2154H7.12246L4.59938 26.0192V37.2154H1.90735e-05Z"
    fill="#FE94D4" />
</svg>